<svg xmlns="http://www.w3.org/2000/svg" viewBox="0 0 800 356"><style>.st0{display:none;} .st1{display:inline;} .st2{fill:#FFFFFF;} .st3{fill:none;stroke:#9882CE;stroke-width:4;stroke-miterlimit:10;} .st4{fill:#FFFFFF;stroke:#404040;stroke-width:4;stroke-linecap:round;stroke-linejoin:round;stroke-miterlimit:10;} .st5{fill:#FFFFFF;stroke:#404040;stroke-width:4;stroke-miterlimit:10;} .st6{fill:#B3E3FF;stroke:#404040;stroke-width:4;stroke-miterlimit:10;} .st7{fill:#B18BE8;stroke:#404040;stroke-width:4;stroke-miterlimit:10;} .st8{fill:#FFFFFF;stroke:#404040;stroke-width:6;stroke-miterlimit:10;} .st9{fill:#B3E3FF;stroke:#404040;stroke-width:6;stroke-miterlimit:10;} .st10{fill:#404040;} .st11{fill:none;stroke:#404040;stroke-width:4;stroke-linecap:round;stroke-linejoin:round;stroke-miterlimit:10;} .st12{fill:#B18BE8;stroke:#404040;stroke-width:4;stroke-linecap:round;stroke-linejoin:round;stroke-miterlimit:10;} .st13{fill:#444444;} .st14{fill:none;stroke:#404040;stroke-width:4;stroke-miterlimit:10;} .st15{fill:#4ED1A1;stroke:#404040;stroke-width:4;stroke-miterlimit:10;} .st16{fill:none;stroke:#CCCCCC;stroke-width:7;stroke-linecap:round;stroke-linejoin:round;stroke-miterlimit:10;} .st17{fill:#FFFFFF;stroke:#CCCCCC;stroke-width:7;stroke-linecap:round;stroke-linejoin:round;stroke-miterlimit:10;} .st18{fill:none;stroke:#404040;stroke-width:7;stroke-miterlimit:10;} .st19{fill:#B3E3FF;stroke:#404040;stroke-width:7;stroke-miterlimit:10;} .st20{fill:none;stroke:#CCCCCC;stroke-width:8;stroke-linecap:round;stroke-miterlimit:10;} .st21{fill:none;stroke:#404040;stroke-width:8;stroke-linecap:round;stroke-miterlimit:10;} .st22{fill:#FFFFFF;stroke:#404040;stroke-width:4;stroke-linejoin:round;stroke-miterlimit:10;} .st23{fill:#B3E3FF;stroke:#404040;stroke-width:4;stroke-linejoin:round;stroke-miterlimit:10;} .st24{fill:none;stroke:#CCCCCC;stroke-linecap:round;stroke-linejoin:round;stroke-miterlimit:10;} .st25{fill:#999999;} .st26{fill:#4ED1A1;stroke:#404040;stroke-width:4;stroke-linecap:round;stroke-linejoin:round;stroke-miterlimit:10;} .st27{fill:#4CD3D6;stroke:#404040;stroke-width:4;stroke-linejoin:round;stroke-miterlimit:10;} .st28{fill:none;stroke:#59AFE1;stroke-width:4;stroke-miterlimit:10;} .st29{fill:#59AFE1;stroke:#404040;stroke-width:4;stroke-linejoin:round;stroke-miterlimit:10;} .st30{fill:none;stroke:#404040;stroke-width:8;stroke-linecap:round;stroke-linejoin:round;stroke-miterlimit:10;stroke-dasharray:0,30;} .st31{fill:#FFFFFF;stroke:#59AFE1;stroke-width:4;stroke-miterlimit:10;} .st32{fill:#FC8363;stroke:#404040;stroke-width:4;stroke-linecap:round;stroke-linejoin:round;stroke-miterlimit:10;} .st33{fill:#CCCCCC;stroke:#404040;stroke-width:4;stroke-miterlimit:10;} .st34{fill:#FFFFFF;stroke:#6693ED;stroke-width:4;stroke-miterlimit:10;} .st35{fill:none;stroke:#A97CDD;stroke-width:4;stroke-linecap:round;stroke-linejoin:round;stroke-miterlimit:10;} .st36{fill:none;stroke:#B3E3FF;stroke-width:4;stroke-linecap:round;stroke-linejoin:round;stroke-miterlimit:10;} .st37{fill:none;stroke:#4ED1A1;stroke-width:4;stroke-linecap:round;stroke-miterlimit:10;} .st38{fill:none;stroke:#4ED1A1;stroke-width:4;stroke-linecap:round;stroke-linejoin:round;stroke-miterlimit:10;} .st39{fill:#E24B88;stroke:#404040;stroke-width:4;stroke-linecap:round;stroke-linejoin:round;stroke-miterlimit:10;} .st40{fill:none;stroke:#DEEFF8;stroke-width:4;stroke-miterlimit:10;} .st41{fill:none;stroke:#CCCCCC;stroke-width:4;stroke-linecap:round;stroke-linejoin:round;} .st42{fill:none;stroke:#CCCCCC;stroke-width:4;stroke-linecap:round;stroke-linejoin:round;stroke-dasharray:0,14.3051;} .st43{fill:none;stroke:#CCCCCC;stroke-width:4;stroke-linecap:round;stroke-linejoin:round;stroke-dasharray:0,14.1689;} .st44{fill:none;stroke:#CCCCCC;stroke-width:4;stroke-linecap:round;stroke-linejoin:round;stroke-dasharray:0,13.9788;} .st45{fill:none;stroke:#CCCCCC;stroke-width:4;stroke-linecap:round;stroke-linejoin:round;stroke-dasharray:0,14.7877;} .st46{fill:none;stroke:#CCCCCC;stroke-width:4;stroke-linecap:round;stroke-linejoin:round;stroke-dasharray:0,14.9632;} .st47{fill:#B3E3FF;stroke:#404040;stroke-width:4;stroke-linecap:round;stroke-linejoin:round;stroke-miterlimit:10;} .st48{fill:none;stroke:#CCCCCC;stroke-width:4;stroke-linecap:round;stroke-linejoin:round;stroke-dasharray:0,12.543;} .st49{fill:none;stroke:#CCCCCC;stroke-width:4;stroke-linecap:round;stroke-linejoin:round;stroke-dasharray:0,13.6844;} .st50{fill:none;stroke:#CCCCCC;stroke-width:4;stroke-linecap:round;stroke-linejoin:round;stroke-dasharray:0,13.7717;} .st51{fill:none;stroke:#CCCCCC;stroke-width:4;stroke-linecap:round;stroke-linejoin:round;stroke-dasharray:0,13.6492;} .st52{fill:none;stroke:#CCCCCC;stroke-width:4;stroke-linecap:round;stroke-linejoin:round;stroke-dasharray:0,13.907;} .st53{fill:#4CD3D6;stroke:#404040;stroke-width:4;stroke-linecap:round;stroke-linejoin:round;stroke-miterlimit:10;} .st54{fill:none;stroke:#CCCCCC;stroke-width:4;stroke-linecap:round;stroke-linejoin:round;stroke-dasharray:0,14.9858;} .st55{fill:none;stroke:#CCCCCC;stroke-width:4;stroke-linecap:round;stroke-linejoin:round;stroke-dasharray:0,14.0118;} .st56{fill:none;stroke:#CCCCCC;stroke-width:4;stroke-linecap:round;stroke-linejoin:round;stroke-dasharray:0,14.1243;} .st57{fill:none;} .st58{fill:#FFFFFF;stroke:#404040;stroke-width:7;stroke-linecap:round;stroke-linejoin:round;stroke-miterlimit:10;} .st59{fill:#59AFE1;stroke:#404040;stroke-width:7;stroke-linejoin:round;stroke-miterlimit:10;} .st60{fill:#E24B88;stroke:#404040;stroke-width:7;stroke-linecap:round;stroke-linejoin:round;stroke-miterlimit:10;} .st61{fill:none;stroke:#404040;stroke-width:7;stroke-linecap:round;stroke-linejoin:round;stroke-miterlimit:10;} .st62{fill:none;stroke:#CCCCCC;stroke-width:4;stroke-linecap:round;stroke-linejoin:round;stroke-miterlimit:10;} .st63{fill:#FFFFFF;stroke:#CCCCCC;stroke-width:4;stroke-linecap:round;stroke-linejoin:round;stroke-miterlimit:10;} .st64{fill:#F5F5F5;} .st65{fill:#3873AE;} .st66{fill:#75706C;} .st67{fill:none;stroke:#B3E3FF;stroke-width:4;stroke-miterlimit:10;} .st68{fill:#6F6F6F;} .st69{fill:none;stroke:#6F6F6F;stroke-width:2;stroke-miterlimit:10;} .st70{fill:none;stroke:#6F6F6F;stroke-width:3;stroke-miterlimit:10;}</style><g id="centralized_x5F_workflow_x5F_5_1_"><path class="st11" d="M594.8 301.9c3.1 6.8 9.9 11.2 17.3 11.2 7.5 0 14.3-4.4 17.4-11.3"/><path class="st15" d="M611.7 346.2s27.4.8 37.7-5.2c17-9.9-.3-30.2-13.7-33.6-4.1 7.7-13.3 13-24 13h.3c-10.7 0-19.8-5.4-24-13-13.4 3.4-30.7 23.8-13.7 33.6 10.3 6 37.7 5.2 37.7 5.2"/><circle class="st15" cx="612.1" cy="276.5" r="23"/><path class="st5" d="M596.5 259.5c2.6 20 34.1 7.2 38 21.8-2.2 10.4-11.4 18.2-22.5 18.2-12.7 0-23-10.3-23-23 0-1.3.1-2.6.3-3.9 1.2 0 8.1 3.9 7.2-13.1z"/><path class="st11" d="M624.6 296.7v10.6m-24.6.1v-10.3m-214.9 3.1c3.1 6.8 9.9 11.2 17.3 11.2 7.5 0 14.3-4.4 17.4-11.3"/><path class="st5" d="M402 344.5s27.4.8 37.7-5.2c17-9.9-.3-30.2-13.7-33.6-4.1 7.7-13.3 13-24 13h.3c-10.7 0-19.8-5.4-24-13-13.4 3.4-30.7 23.8-13.7 33.6 10.3 6 37.7 5.2 37.7 5.2"/><circle class="st5" cx="402.5" cy="274.8" r="23"/><path class="st5" d="M413.1 262.6c2.6 20 7.9 2.4 11.8 17-2.2 10.4-11.4 18.2-22.5 18.2-12.7 0-23-10.3-23-23 0-1.3.1-2.6.3-3.9 1.1.1 26.3 11 33.4-8.3z"/><path class="st11" d="M415 295v10.6m-24.6.1v-10.3"/><path class="st4" d="M170.6 300.2c3.1 6.8 9.9 11.2 17.3 11.2 7.5 0 14.3-4.4 17.4-11.3"/><path class="st7" d="M188 344.5s27.4.8 37.7-5.2c17-9.9-.3-30.2-13.7-33.6-4.1 7.7-13.3 13-24 13h.3c-10.7 0-19.8-5.4-24-13-13.4 3.4-30.7 23.8-13.7 33.6 10.3 6 37.7 5.2 37.7 5.2"/><circle class="st7" cx="187.9" cy="274.8" r="23"/><path class="st4" d="M198 254.1c-6.7 17.2-19.4.5-32.6 25.5 2.2 10.4 11.4 18.2 22.5 18.2 12.7 0 23-10.3 23-23 0-1.4-11.1-6-12.9-20.7zm2.5 39.9v11.6m-24.6.1v-11.3"/><path class="st7" d="M164.9 275.3s0 10.6 4.6 14.5c-3.6 1.7-11.6-.9-10.5-1.7 4.5-3.2 5.9-12.8 5.9-12.8zm46-.5s-.2 11.1-4.8 15c3.6 1.7 11.6-.9 10.5-1.7-4.5-3.2-5.7-13.3-5.7-13.3z"/><path id="repo1_244_" class="st5" d="M125.2 117.8c0-12.4 28.2-22.4 63-22.4s63 10 63 22.4m-126 0v27.9c0 3 1.7 5.9 4.7 8.5 9.4 8.2 32 13.9 58.3 13.9 26.4 0 48.9-5.8 58.3-13.9 3-2.6 4.7-5.5 4.7-8.5v-27.9"/><path class="st34" d="M251.2 117.8c0 12.4-28.2 22.4-63 22.4s-63-10-63-22.4c0-12.4 28.2-22.4 63-22.4s63 10 63 22.4z"/><path id="repo1_243_" class="st5" d="M125.2 89.9c0-12.4 28.2-22.4 63-22.4s63 10 63 22.4m-126 0v27.9c0 3 1.7 5.9 4.7 8.5 9.4 8.2 32 13.9 58.3 13.9 26.4 0 48.9-5.8 58.3-13.9 3-2.6 4.7-5.5 4.7-8.5v-27.9"/><path class="st34" d="M251.2 89.9c0 12.4-28.2 22.4-63 22.4s-63-10-63-22.4 28.2-22.4 63-22.4 63 10 63 22.4z"/><path id="repo1_242_" class="st5" d="M125.2 62c0-12.4 28.2-22.4 63-22.4s63 10 63 22.4m-126 0v27.9c0 3 1.7 5.9 4.7 8.5 9.4 8.2 32 13.9 58.3 13.9 26.4 0 48.9-5.8 58.3-13.9 3-2.6 4.7-5.5 4.7-8.5v-27.9"/><path class="st34" d="M251.2 62c0 12.4-28.2 22.4-63 22.4s-63-10-63-22.4c0-12.4 28.2-22.4 63-22.4s63 10 63 22.4z"/><path id="repo1_241_" class="st5" d="M125.2 34.1c0-12.4 28.2-22.4 63-22.4s63 10 63 22.4m-126 0v27.9c0 3 1.7 5.9 4.7 8.5 9.4 8.2 32 13.9 58.3 13.9 26.4 0 48.9-5.8 58.3-13.9 3-2.6 4.7-5.5 4.7-8.5v-27.9"/><path class="st5" d="M251.2 34.1c0 12.4-28.2 22.4-63 22.4s-63-10-63-22.4c0-12.4 28.2-22.4 63-22.4s63 10 63 22.4z"/><path id="repo1_240_" class="st5" d="M339.2 117.8c0-12.4 28.2-22.4 63-22.4s63 10 63 22.4m-126 0v27.9c0 3 1.7 5.9 4.7 8.5 9.4 8.2 32 13.9 58.3 13.9 26.4 0 48.9-5.8 58.3-13.9 3-2.6 4.7-5.5 4.7-8.5v-27.9"/><path class="st34" d="M465.2 117.8c0 12.4-28.2 22.4-63 22.4s-63-10-63-22.4c0-12.4 28.2-22.4 63-22.4s63 10 63 22.4z"/><path id="repo1_239_" class="st5" d="M339.2 89.9c0-12.4 28.2-22.4 63-22.4s63 10 63 22.4m-126 0v27.9c0 3 1.7 5.9 4.7 8.5 9.4 8.2 32 13.9 58.3 13.9 26.4 0 48.9-5.8 58.3-13.9 3-2.6 4.7-5.5 4.7-8.5v-27.9"/><path class="st34" d="M465.2 89.9c0 12.4-28.2 22.4-63 22.4s-63-10-63-22.4 28.2-22.4 63-22.4 63 10 63 22.4z"/><path id="repo1_238_" class="st5" d="M339.2 62c0-12.4 28.2-22.4 63-22.4s63 10 63 22.4m-126 0v27.9c0 3 1.7 5.9 4.7 8.5 9.4 8.2 32 13.9 58.3 13.9 26.4 0 48.9-5.8 58.3-13.9 3-2.6 4.7-5.5 4.7-8.5v-27.9"/><path class="st34" d="M465.2 62c0 12.4-28.2 22.4-63 22.4s-63-10-63-22.4c0-12.4 28.2-22.4 63-22.4s63 10 63 22.4z"/><path id="repo1_237_" class="st5" d="M339.2 34.1c0-12.4 28.2-22.4 63-22.4s63 10 63 22.4m-126 0v27.9c0 3 1.7 5.9 4.7 8.5 9.4 8.2 32 13.9 58.3 13.9 26.4 0 48.9-5.8 58.3-13.9 3-2.6 4.7-5.5 4.7-8.5v-27.9"/><path class="st5" d="M465.2 34.1c0 12.4-28.2 22.4-63 22.4s-63-10-63-22.4c0-12.4 28.2-22.4 63-22.4s63 10 63 22.4z"/><path id="repo1_236_" class="st5" d="M548.8 117.8c0-12.4 28.2-22.4 63-22.4s63 10 63 22.4m-126 0v27.9c0 3 1.7 5.9 4.7 8.5 9.4 8.2 32 13.9 58.3 13.9 26.4 0 48.9-5.8 58.3-13.9 3-2.6 4.7-5.5 4.7-8.5v-27.9"/><path class="st34" d="M674.8 117.8c0 12.4-28.2 22.4-63 22.4s-63-10-63-22.4c0-12.4 28.2-22.4 63-22.4s63 10 63 22.4z"/><path id="repo1_235_" class="st5" d="M548.8 89.9c0-12.4 28.2-22.4 63-22.4s63 10 63 22.4m-126 0v27.9c0 3 1.7 5.9 4.7 8.5 9.4 8.2 32 13.9 58.3 13.9 26.4 0 48.9-5.8 58.3-13.9 3-2.6 4.7-5.5 4.7-8.5v-27.9"/><path class="st34" d="M674.8 89.9c0 12.4-28.2 22.4-63 22.4s-63-10-63-22.4 28.2-22.4 63-22.4 63 10 63 22.4z"/><path id="repo1_234_" class="st5" d="M548.8 62c0-12.4 28.2-22.4 63-22.4s63 10 63 22.4m-126 0v27.9c0 3 1.7 5.9 4.7 8.5 9.4 8.2 32 13.9 58.3 13.9 26.4 0 48.9-5.8 58.3-13.9 3-2.6 4.7-5.5 4.7-8.5v-27.9"/><path class="st34" d="M674.8 62c0 12.4-28.2 22.4-63 22.4s-63-10-63-22.4c0-12.4 28.2-22.4 63-22.4s63 10 63 22.4z"/><path id="repo1_233_" class="st5" d="M548.8 34.1c0-12.4 28.2-22.4 63-22.4s63 10 63 22.4m-126 0v27.9c0 3 1.7 5.9 4.7 8.5 9.4 8.2 32 13.9 58.3 13.9 26.4 0 48.9-5.8 58.3-13.9 3-2.6 4.7-5.5 4.7-8.5v-27.9"/><path class="st5" d="M674.8 34.1c0 12.4-28.2 22.4-63 22.4s-63-10-63-22.4c0-12.4 28.2-22.4 63-22.4s63 10 63 22.4z"/></g></svg>